<svg height="6478" width="720" xmlns="http://www.w3.org/2000/svg">
<rect height="6478" fill="#555" width="720"></rect>
<text fill="#7f7" font-family="Courier New" font-size="12" xml:space="preserve">
<tspan x="10" y="26">85 megabytes installed</tspan>
<tspan x="10" y="42"></tspan>
<tspan x="10" y="58">node_modules</tspan>
<tspan x="10" y="74">└─┬ apostrophe@2.23.1 </tspan>
<tspan x="10" y="90">  ├── async@1.5.2 </tspan>
<tspan x="10" y="106">  ├── bless@3.0.3 </tspan>
<tspan x="10" y="122">  ├─┬ body-parser@1.17.1 </tspan>
<tspan x="10" y="138">  │ ├── bytes@2.4.0 </tspan>
<tspan x="10" y="154">  │ ├── content-type@1.0.2 </tspan>
<tspan x="10" y="170">  │ ├─┬ debug@2.6.1 </tspan>
<tspan x="10" y="186">  │ │ └── ms@0.7.2 </tspan>
<tspan x="10" y="202">  │ ├── depd@1.1.0 </tspan>
<tspan x="10" y="218">  │ ├── http-errors@1.6.1 </tspan>
<tspan x="10" y="234">  │ ├── iconv-lite@0.4.15 </tspan>
<tspan x="10" y="250">  │ ├─┬ on-finished@2.3.0 </tspan>
<tspan x="10" y="266">  │ │ └── ee-first@1.1.1 </tspan>
<tspan x="10" y="282">  │ ├── qs@6.4.0 </tspan>
<tspan x="10" y="298">  │ ├─┬ raw-body@2.2.0 </tspan>
<tspan x="10" y="314">  │ │ └── unpipe@1.0.0 </tspan>
<tspan x="10" y="330">  │ └─┬ type-is@1.6.15 </tspan>
<tspan x="10" y="346">  │   └── media-typer@0.3.0 </tspan>
<tspan x="10" y="362">  ├─┬ broadband@0.1.1 </tspan>
<tspan x="10" y="378">  │ └── lodash@2.4.2 </tspan>
<tspan x="10" y="394">  ├─┬ cheerio@0.22.0 </tspan>
<tspan x="10" y="410">  │ ├─┬ css-select@1.2.0 </tspan>
<tspan x="10" y="426">  │ │ ├── boolbase@1.0.0 </tspan>
<tspan x="10" y="442">  │ │ ├── css-what@2.1.0 </tspan>
<tspan x="10" y="458">  │ │ ├── domutils@1.5.1 </tspan>
<tspan x="10" y="474">  │ │ └── nth-check@1.0.1 </tspan>
<tspan x="10" y="490">  │ ├─┬ dom-serializer@0.1.0 </tspan>
<tspan x="10" y="506">  │ │ └── domelementtype@1.1.3 </tspan>
<tspan x="10" y="522">  │ ├── entities@1.1.1 </tspan>
<tspan x="10" y="538">  │ ├─┬ htmlparser2@3.9.2 </tspan>
<tspan x="10" y="554">  │ │ ├── domelementtype@1.3.0 </tspan>
<tspan x="10" y="570">  │ │ ├── domhandler@2.3.0 </tspan>
<tspan x="10" y="586">  │ │ └── readable-stream@2.2.9 </tspan>
<tspan x="10" y="602">  │ ├── lodash.assignin@4.2.0 </tspan>
<tspan x="10" y="618">  │ ├── lodash.bind@4.2.1 </tspan>
<tspan x="10" y="634">  │ ├── lodash.defaults@4.2.0 </tspan>
<tspan x="10" y="650">  │ ├── lodash.filter@4.6.0 </tspan>
<tspan x="10" y="666">  │ ├── lodash.flatten@4.4.0 </tspan>
<tspan x="10" y="682">  │ ├── lodash.foreach@4.5.0 </tspan>
<tspan x="10" y="698">  │ ├── lodash.map@4.6.0 </tspan>
<tspan x="10" y="714">  │ ├── lodash.merge@4.6.0 </tspan>
<tspan x="10" y="730">  │ ├── lodash.pick@4.4.0 </tspan>
<tspan x="10" y="746">  │ ├── lodash.reduce@4.6.0 </tspan>
<tspan x="10" y="762">  │ ├── lodash.reject@4.6.0 </tspan>
<tspan x="10" y="778">  │ └── lodash.some@4.6.0 </tspan>
<tspan x="10" y="794">  ├─┬ clean-css@3.4.25 </tspan>
<tspan x="10" y="810">  │ ├─┬ commander@2.8.1 </tspan>
<tspan x="10" y="826">  │ │ └── graceful-readlink@1.0.1 </tspan>
<tspan x="10" y="842">  │ └─┬ source-map@0.4.4 </tspan>
<tspan x="10" y="858">  │   └── amdefine@1.0.1 </tspan>
<tspan x="10" y="874">  ├── connect-flash@0.1.1 </tspan>
<tspan x="10" y="890">  ├─┬ connect-mongo@1.3.2 </tspan>
<tspan x="10" y="906">  │ └── bluebird@3.5.0 </tspan>
<tspan x="10" y="922">  ├─┬ connect-multiparty@2.0.0 </tspan>
<tspan x="10" y="938">  │ ├─┬ multiparty@4.1.3 </tspan>
<tspan x="10" y="954">  │ │ └─┬ fd-slicer@1.0.1 </tspan>
<tspan x="10" y="970">  │ │   └── pend@1.2.0 </tspan>
<tspan x="10" y="986">  │ └── qs@4.0.0 </tspan>
<tspan x="10" y="1002">  ├─┬ cookie-parser@1.4.3 </tspan>
<tspan x="10" y="1018">  │ ├── cookie@0.3.1 </tspan>
<tspan x="10" y="1034">  │ └── cookie-signature@1.0.6 </tspan>
<tspan x="10" y="1050">  ├─┬ credential@1.0.0 </tspan>
<tspan x="10" y="1066">  │ ├── mout@0.6.0 </tspan>
<tspan x="10" y="1082">  │ ├── pify@2.3.0 </tspan>
<tspan x="10" y="1098">  │ ├─┬ pinkie-promise@2.0.1 </tspan>
<tspan x="10" y="1114">  │ │ └── pinkie@2.0.4 </tspan>
<tspan x="10" y="1130">  │ └── pluck-keys@0.0.4 </tspan>
<tspan x="10" y="1146">  ├─┬ cuid@1.3.8 </tspan>
<tspan x="10" y="1162">  │ ├── browser-fingerprint@0.0.1 </tspan>
<tspan x="10" y="1178">  │ ├── core-js@1.2.7 </tspan>
<tspan x="10" y="1194">  │ └── node-fingerprint@0.0.2 </tspan>
<tspan x="10" y="1210">  ├── deep-get-set@0.1.1 </tspan>
<tspan x="10" y="1226">  ├── diff@2.2.3 </tspan>
<tspan x="10" y="1242">  ├─┬ express@4.15.2 </tspan>
<tspan x="10" y="1258">  │ ├─┬ accepts@1.3.3 </tspan>
<tspan x="10" y="1274">  │ │ └── negotiator@0.6.1 </tspan>
<tspan x="10" y="1290">  │ ├── array-flatten@1.1.1 </tspan>
<tspan x="10" y="1306">  │ ├── content-disposition@0.5.2 </tspan>
<tspan x="10" y="1322">  │ ├── encodeurl@1.0.1 </tspan>
<tspan x="10" y="1338">  │ ├── escape-html@1.0.3 </tspan>
<tspan x="10" y="1354">  │ ├── etag@1.8.0 </tspan>
<tspan x="10" y="1370">  │ ├─┬ finalhandler@1.0.2 </tspan>
<tspan x="10" y="1386">  │ │ └─┬ debug@2.6.4 </tspan>
<tspan x="10" y="1402">  │ │   └── ms@0.7.3 </tspan>
<tspan x="10" y="1418">  │ ├── fresh@0.5.0 </tspan>
<tspan x="10" y="1434">  │ ├── merge-descriptors@1.0.1 </tspan>
<tspan x="10" y="1450">  │ ├── methods@1.1.2 </tspan>
<tspan x="10" y="1466">  │ ├── parseurl@1.3.1 </tspan>
<tspan x="10" y="1482">  │ ├── path-to-regexp@0.1.7 </tspan>
<tspan x="10" y="1498">  │ ├─┬ proxy-addr@1.1.4 </tspan>
<tspan x="10" y="1514">  │ │ ├── forwarded@0.1.0 </tspan>
<tspan x="10" y="1530">  │ │ └── ipaddr.js@1.3.0 </tspan>
<tspan x="10" y="1546">  │ ├── qs@6.4.0 </tspan>
<tspan x="10" y="1562">  │ ├── range-parser@1.2.0 </tspan>
<tspan x="10" y="1578">  │ ├─┬ send@0.15.1 </tspan>
<tspan x="10" y="1594">  │ │ └── destroy@1.0.4 </tspan>
<tspan x="10" y="1610">  │ ├── serve-static@1.12.1 </tspan>
<tspan x="10" y="1626">  │ ├── setprototypeof@1.0.3 </tspan>
<tspan x="10" y="1642">  │ ├── statuses@1.3.1 </tspan>
<tspan x="10" y="1658">  │ ├── utils-merge@1.0.0 </tspan>
<tspan x="10" y="1674">  │ └── vary@1.1.1 </tspan>
<tspan x="10" y="1690">  ├─┬ express-session@1.15.2 </tspan>
<tspan x="10" y="1706">  │ ├── crc@3.4.4 </tspan>
<tspan x="10" y="1722">  │ ├── debug@2.6.3 </tspan>
<tspan x="10" y="1738">  │ ├── on-headers@1.0.1 </tspan>
<tspan x="10" y="1754">  │ └─┬ uid-safe@2.1.4 </tspan>
<tspan x="10" y="1770">  │   └── random-bytes@1.0.0 </tspan>
<tspan x="10" y="1786">  ├─┬ glob@5.0.15 </tspan>
<tspan x="10" y="1802">  │ ├─┬ inflight@1.0.6 </tspan>
<tspan x="10" y="1818">  │ │ └── wrappy@1.0.2 </tspan>
<tspan x="10" y="1834">  │ ├── inherits@2.0.3 </tspan>
<tspan x="10" y="1850">  │ ├── once@1.4.0 </tspan>
<tspan x="10" y="1866">  │ └── path-is-absolute@1.0.1 </tspan>
<tspan x="10" y="1882">  ├── he@0.5.0 </tspan>
<tspan x="10" y="1898">  ├─┬ i18n@0.8.3 </tspan>
<tspan x="10" y="1914">  │ ├─┬ make-plural@3.0.6 </tspan>
<tspan x="10" y="1930">  │ │ └── minimist@1.2.0 </tspan>
<tspan x="10" y="1946">  │ ├── math-interval-parser@1.1.0 </tspan>
<tspan x="10" y="1962">  │ ├─┬ messageformat@0.3.1 </tspan>
<tspan x="10" y="1978">  │ │ ├── glob@6.0.4 </tspan>
<tspan x="10" y="1994">  │ │ ├─┬ nopt@3.0.6 </tspan>
<tspan x="10" y="2010">  │ │ │ └── abbrev@1.1.0 </tspan>
<tspan x="10" y="2026">  │ │ └─┬ watchr@2.4.13 </tspan>
<tspan x="10" y="2042">  │ │   ├── eachr@2.0.4 </tspan>
<tspan x="10" y="2058">  │ │   ├─┬ extendr@2.1.0 </tspan>
<tspan x="10" y="2074">  │ │   │ └── typechecker@2.0.8 </tspan>
<tspan x="10" y="2090">  │ │   ├─┬ extract-opts@2.2.0 </tspan>
<tspan x="10" y="2106">  │ │   │ └── typechecker@2.0.8 </tspan>
<tspan x="10" y="2122">  │ │   ├─┬ ignorefs@1.2.0 </tspan>
<tspan x="10" y="2138">  │ │   │ ├── editions@1.3.3 </tspan>
<tspan x="10" y="2154">  │ │   │ └── ignorepatterns@1.1.0 </tspan>
<tspan x="10" y="2170">  │ │   ├── safefs@3.2.2 </tspan>
<tspan x="10" y="2186">  │ │   ├── scandirectory@2.5.0 </tspan>
<tspan x="10" y="2202">  │ │   ├─┬ taskgroup@4.3.1 </tspan>
<tspan x="10" y="2218">  │ │   │ ├─┬ ambi@2.5.0 </tspan>
<tspan x="10" y="2234">  │ │   │ │ └── typechecker@4.4.1 </tspan>
<tspan x="10" y="2250">  │ │   │ └─┬ csextends@1.1.1 </tspan>
<tspan x="10" y="2266">  │ │   │   └── coffee-script@1.12.5 </tspan>
<tspan x="10" y="2282">  │ │   └── typechecker@2.1.0 </tspan>
<tspan x="10" y="2298">  │ ├── mustache@2.3.0 </tspan>
<tspan x="10" y="2314">  │ └── sprintf-js@1.0.3 </tspan>
<tspan x="10" y="2330">  ├─┬ joinr@1.0.1 </tspan>
<tspan x="10" y="2346">  │ └── lodash@2.4.2 </tspan>
<tspan x="10" y="2362">  ├── launder@0.1.4 </tspan>
<tspan x="10" y="2378">  ├─┬ less@2.7.2 </tspan>
<tspan x="10" y="2394">  │ ├─┬ errno@0.1.4 </tspan>
<tspan x="10" y="2410">  │ │ └── prr@0.0.0 </tspan>
<tspan x="10" y="2426">  │ ├── graceful-fs@4.1.11 </tspan>
<tspan x="10" y="2442">  │ ├── image-size@0.5.1 </tspan>
<tspan x="10" y="2458">  │ ├── mime@1.3.4 </tspan>
<tspan x="10" y="2474">  │ ├── promise@7.1.1 </tspan>
<tspan x="10" y="2490">  │ └── source-map@0.5.6 </tspan>
<tspan x="10" y="2506">  ├─┬ less-middleware@2.2.0 </tspan>
<tspan x="10" y="2522">  │ └─┬ node.extend@1.1.6 </tspan>
<tspan x="10" y="2538">  │   └── is@3.2.1 </tspan>
<tspan x="10" y="2554">  ├── lodash@3.10.1 </tspan>
<tspan x="10" y="2570">  ├─┬ minimatch@3.0.3 </tspan>
<tspan x="10" y="2586">  │ └─┬ brace-expansion@1.1.7 </tspan>
<tspan x="10" y="2602">  │   ├── balanced-match@0.4.2 </tspan>
<tspan x="10" y="2618">  │   └── concat-map@0.0.1 </tspan>
<tspan x="10" y="2634">  ├─┬ mkdirp@0.5.1 </tspan>
<tspan x="10" y="2650">  │ └── minimist@0.0.8 </tspan>
<tspan x="10" y="2666">  ├── moment@2.18.1 </tspan>
<tspan x="10" y="2682">  ├─┬ mongodb@2.2.26 </tspan>
<tspan x="10" y="2698">  │ ├── es6-promise@3.2.1 </tspan>
<tspan x="10" y="2714">  │ ├─┬ mongodb-core@2.1.10 </tspan>
<tspan x="10" y="2730">  │ │ ├── bson@1.0.4 </tspan>
<tspan x="10" y="2746">  │ │ └─┬ require_optional@1.0.0 </tspan>
<tspan x="10" y="2762">  │ │   ├── resolve-from@2.0.0 </tspan>
<tspan x="10" y="2778">  │ │   └── semver@5.3.0 </tspan>
<tspan x="10" y="2794">  │ └─┬ readable-stream@2.2.7 </tspan>
<tspan x="10" y="2810">  │   ├── buffer-shims@1.0.0 </tspan>
<tspan x="10" y="2826">  │   ├── core-util-is@1.0.2 </tspan>
<tspan x="10" y="2842">  │   ├── isarray@1.0.0 </tspan>
<tspan x="10" y="2858">  │   ├── process-nextick-args@1.0.7 </tspan>
<tspan x="10" y="2874">  │   └── string_decoder@1.0.0 </tspan>
<tspan x="10" y="2890">  ├─┬ moog-require@0.4.1 </tspan>
<tspan x="10" y="2906">  │ ├── async@0.9.2 </tspan>
<tspan x="10" y="2922">  │ ├── lodash@2.4.2 </tspan>
<tspan x="10" y="2938">  │ ├─┬ moog@0.3.0 </tspan>
<tspan x="10" y="2954">  │ │ ├── async@0.9.2 </tspan>
<tspan x="10" y="2970">  │ │ └── lodash@2.4.2 </tspan>
<tspan x="10" y="2986">  │ └─┬ resolve@1.3.3 </tspan>
<tspan x="10" y="3002">  │   └── path-parse@1.0.5 </tspan>
<tspan x="10" y="3018">  ├─┬ nunjucks@2.5.2 </tspan>
<tspan x="10" y="3034">  │ ├── asap@2.0.5 </tspan>
<tspan x="10" y="3050">  │ └─┬ chokidar@1.6.1 </tspan>
<tspan x="10" y="3066">  │   ├─┬ anymatch@1.3.0 </tspan>
<tspan x="10" y="3082">  │   │ ├── arrify@1.0.1 </tspan>
<tspan x="10" y="3098">  │   │ └─┬ micromatch@2.3.11 </tspan>
<tspan x="10" y="3114">  │   │   ├─┬ arr-diff@2.0.0 </tspan>
<tspan x="10" y="3130">  │   │   │ └── arr-flatten@1.0.3 </tspan>
<tspan x="10" y="3146">  │   │   ├── array-unique@0.2.1 </tspan>
<tspan x="10" y="3162">  │   │   ├─┬ braces@1.8.5 </tspan>
<tspan x="10" y="3178">  │   │   │ ├─┬ expand-range@1.8.2 </tspan>
<tspan x="10" y="3194">  │   │   │ │ └─┬ fill-range@2.2.3 </tspan>
<tspan x="10" y="3210">  │   │   │ │   ├── is-number@2.1.0 </tspan>
<tspan x="10" y="3226">  │   │   │ │   ├── isobject@2.1.0 </tspan>
<tspan x="10" y="3242">  │   │   │ │   └── randomatic@1.1.6 </tspan>
<tspan x="10" y="3258">  │   │   │ ├── preserve@0.2.0 </tspan>
<tspan x="10" y="3274">  │   │   │ └── repeat-element@1.1.2 </tspan>
<tspan x="10" y="3290">  │   │   ├─┬ expand-brackets@0.1.5 </tspan>
<tspan x="10" y="3306">  │   │   │ └── is-posix-bracket@0.1.1 </tspan>
<tspan x="10" y="3322">  │   │   ├── extglob@0.3.2 </tspan>
<tspan x="10" y="3338">  │   │   ├── filename-regex@2.0.0 </tspan>
<tspan x="10" y="3354">  │   │   ├─┬ kind-of@3.2.0 </tspan>
<tspan x="10" y="3370">  │   │   │ └── is-buffer@1.1.5 </tspan>
<tspan x="10" y="3386">  │   │   ├─┬ normalize-path@2.1.1 </tspan>
<tspan x="10" y="3402">  │   │   │ └── remove-trailing-separator@1.0.1 </tspan>
<tspan x="10" y="3418">  │   │   ├─┬ object.omit@2.0.1 </tspan>
<tspan x="10" y="3434">  │   │   │ ├─┬ for-own@0.1.5 </tspan>
<tspan x="10" y="3450">  │   │   │ │ └── for-in@1.0.2 </tspan>
<tspan x="10" y="3466">  │   │   │ └── is-extendable@0.1.1 </tspan>
<tspan x="10" y="3482">  │   │   ├─┬ parse-glob@3.0.4 </tspan>
<tspan x="10" y="3498">  │   │   │ ├── glob-base@0.3.0 </tspan>
<tspan x="10" y="3514">  │   │   │ └── is-dotfile@1.0.2 </tspan>
<tspan x="10" y="3530">  │   │   └─┬ regex-cache@0.4.3 </tspan>
<tspan x="10" y="3546">  │   │     ├── is-equal-shallow@0.1.3 </tspan>
<tspan x="10" y="3562">  │   │     └── is-primitive@2.0.0 </tspan>
<tspan x="10" y="3578">  │   ├── async-each@1.0.1 </tspan>
<tspan x="10" y="3594">  │   ├── glob-parent@2.0.0 </tspan>
<tspan x="10" y="3610">  │   ├─┬ is-binary-path@1.0.1 </tspan>
<tspan x="10" y="3626">  │   │ └── binary-extensions@1.8.0 </tspan>
<tspan x="10" y="3642">  │   ├─┬ is-glob@2.0.1 </tspan>
<tspan x="10" y="3658">  │   │ └── is-extglob@1.0.0 </tspan>
<tspan x="10" y="3674">  │   └─┬ readdirp@2.1.0 </tspan>
<tspan x="10" y="3690">  │     └── set-immediate-shim@1.0.1 </tspan>
<tspan x="10" y="3706">  ├─┬ oembetter@0.1.14 </tspan>
<tspan x="10" y="3722">  │ ├── async@0.9.2 </tspan>
<tspan x="10" y="3738">  │ ├── urls@0.0.4 </tspan>
<tspan x="10" y="3754">  │ └─┬ xml2js@0.4.17 </tspan>
<tspan x="10" y="3770">  │   ├── sax@1.2.2 </tspan>
<tspan x="10" y="3786">  │   └─┬ xmlbuilder@4.2.1 </tspan>
<tspan x="10" y="3802">  │     └── lodash@4.17.4 </tspan>
<tspan x="10" y="3818">  ├─┬ passport@0.3.2 </tspan>
<tspan x="10" y="3834">  │ ├── passport-strategy@1.0.0 </tspan>
<tspan x="10" y="3850">  │ └── pause@0.0.1 </tspan>
<tspan x="10" y="3866">  ├── passport-local@1.0.0 </tspan>
<tspan x="10" y="3882">  ├─┬ path-to-regexp@1.7.0 </tspan>
<tspan x="10" y="3898">  │ └── isarray@0.0.1 </tspan>
<tspan x="10" y="3914">  ├─┬ prompt@0.2.14 </tspan>
<tspan x="10" y="3930">  │ ├── pkginfo@0.4.0 </tspan>
<tspan x="10" y="3946">  │ ├─┬ read@1.0.7 </tspan>
<tspan x="10" y="3962">  │ │ └── mute-stream@0.0.7 </tspan>
<tspan x="10" y="3978">  │ ├── revalidator@0.1.8 </tspan>
<tspan x="10" y="3994">  │ ├─┬ utile@0.2.1 </tspan>
<tspan x="10" y="4010">  │ │ ├── async@0.2.10 </tspan>
<tspan x="10" y="4026">  │ │ ├── deep-equal@1.0.1 </tspan>
<tspan x="10" y="4042">  │ │ ├── i@0.3.5 </tspan>
<tspan x="10" y="4058">  │ │ └── ncp@0.4.2 </tspan>
<tspan x="10" y="4074">  │ └─┬ winston@0.8.3 </tspan>
<tspan x="10" y="4090">  │   ├── async@0.2.10 </tspan>
<tspan x="10" y="4106">  │   ├── colors@0.6.2 </tspan>
<tspan x="10" y="4122">  │   ├── cycle@1.0.3 </tspan>
<tspan x="10" y="4138">  │   ├── eyes@0.1.8 </tspan>
<tspan x="10" y="4154">  │   ├── pkginfo@0.3.1 </tspan>
<tspan x="10" y="4170">  │   └── stack-trace@0.0.9 </tspan>
<tspan x="10" y="4186">  ├── qs@5.2.1 </tspan>
<tspan x="10" y="4202">  ├── regexp-quote@0.0.0 </tspan>
<tspan x="10" y="4218">  ├─┬ request@2.81.0 </tspan>
<tspan x="10" y="4234">  │ ├── aws-sign2@0.6.0 </tspan>
<tspan x="10" y="4250">  │ ├── aws4@1.6.0 </tspan>
<tspan x="10" y="4266">  │ ├── caseless@0.12.0 </tspan>
<tspan x="10" y="4282">  │ ├─┬ combined-stream@1.0.5 </tspan>
<tspan x="10" y="4298">  │ │ └── delayed-stream@1.0.0 </tspan>
<tspan x="10" y="4314">  │ ├── extend@3.0.0 </tspan>
<tspan x="10" y="4330">  │ ├── forever-agent@0.6.1 </tspan>
<tspan x="10" y="4346">  │ ├─┬ form-data@2.1.4 </tspan>
<tspan x="10" y="4362">  │ │ └── asynckit@0.4.0 </tspan>
<tspan x="10" y="4378">  │ ├─┬ har-validator@4.2.1 </tspan>
<tspan x="10" y="4394">  │ │ ├─┬ ajv@4.11.7 </tspan>
<tspan x="10" y="4410">  │ │ │ ├── co@4.6.0 </tspan>
<tspan x="10" y="4426">  │ │ │ └─┬ json-stable-stringify@1.0.1 </tspan>
<tspan x="10" y="4442">  │ │ │   └── jsonify@0.0.0 </tspan>
<tspan x="10" y="4458">  │ │ └── har-schema@1.0.5 </tspan>
<tspan x="10" y="4474">  │ ├─┬ hawk@3.1.3 </tspan>
<tspan x="10" y="4490">  │ │ ├── boom@2.10.1 </tspan>
<tspan x="10" y="4506">  │ │ ├── cryptiles@2.0.5 </tspan>
<tspan x="10" y="4522">  │ │ ├── hoek@2.16.3 </tspan>
<tspan x="10" y="4538">  │ │ └── sntp@1.0.9 </tspan>
<tspan x="10" y="4554">  │ ├─┬ http-signature@1.1.1 </tspan>
<tspan x="10" y="4570">  │ │ ├── assert-plus@0.2.0 </tspan>
<tspan x="10" y="4586">  │ │ ├─┬ jsprim@1.4.0 </tspan>
<tspan x="10" y="4602">  │ │ │ ├── assert-plus@1.0.0 </tspan>
<tspan x="10" y="4618">  │ │ │ ├── extsprintf@1.0.2 </tspan>
<tspan x="10" y="4634">  │ │ │ ├── json-schema@0.2.3 </tspan>
<tspan x="10" y="4650">  │ │ │ └── verror@1.3.6 </tspan>
<tspan x="10" y="4666">  │ │ └─┬ sshpk@1.13.0 </tspan>
<tspan x="10" y="4682">  │ │   ├── asn1@0.2.3 </tspan>
<tspan x="10" y="4698">  │ │   ├── assert-plus@1.0.0 </tspan>
<tspan x="10" y="4714">  │ │   ├── bcrypt-pbkdf@1.0.1 </tspan>
<tspan x="10" y="4730">  │ │   ├─┬ dashdash@1.14.1 </tspan>
<tspan x="10" y="4746">  │ │   │ └── assert-plus@1.0.0 </tspan>
<tspan x="10" y="4762">  │ │   ├── ecc-jsbn@0.1.1 </tspan>
<tspan x="10" y="4778">  │ │   ├─┬ getpass@0.1.7 </tspan>
<tspan x="10" y="4794">  │ │   │ └── assert-plus@1.0.0 </tspan>
<tspan x="10" y="4810">  │ │   ├── jodid25519@1.0.2 </tspan>
<tspan x="10" y="4826">  │ │   ├── jsbn@0.1.1 </tspan>
<tspan x="10" y="4842">  │ │   └── tweetnacl@0.14.5 </tspan>
<tspan x="10" y="4858">  │ ├── is-typedarray@1.0.0 </tspan>
<tspan x="10" y="4874">  │ ├── isstream@0.1.2 </tspan>
<tspan x="10" y="4890">  │ ├── json-stringify-safe@5.0.1 </tspan>
<tspan x="10" y="4906">  │ ├─┬ mime-types@2.1.15 </tspan>
<tspan x="10" y="4922">  │ │ └── mime-db@1.27.0 </tspan>
<tspan x="10" y="4938">  │ ├── oauth-sign@0.8.2 </tspan>
<tspan x="10" y="4954">  │ ├── performance-now@0.2.0 </tspan>
<tspan x="10" y="4970">  │ ├── qs@6.4.0 </tspan>
<tspan x="10" y="4986">  │ ├── safe-buffer@5.0.1 </tspan>
<tspan x="10" y="5002">  │ ├── stringstream@0.0.5 </tspan>
<tspan x="10" y="5018">  │ ├─┬ tough-cookie@2.3.2 </tspan>
<tspan x="10" y="5034">  │ │ └── punycode@1.4.1 </tspan>
<tspan x="10" y="5050">  │ ├── tunnel-agent@0.6.0 </tspan>
<tspan x="10" y="5066">  │ └── uuid@3.0.1 </tspan>
<tspan x="10" y="5082">  ├─┬ rimraf@2.6.1 </tspan>
<tspan x="10" y="5098">  │ └─┬ glob@7.1.1 </tspan>
<tspan x="10" y="5114">  │   └── fs.realpath@1.0.0 </tspan>
<tspan x="10" y="5130">  ├─┬ sanitize-html@1.14.1 </tspan>
<tspan x="10" y="5146">  │ └── xtend@4.0.1 </tspan>
<tspan x="10" y="5162">  ├── sluggo@0.2.0 </tspan>
<tspan x="10" y="5178">  ├─┬ syntax-error@1.3.0 </tspan>
<tspan x="10" y="5194">  │ └── acorn@4.0.11 </tspan>
<tspan x="10" y="5210">  ├─┬ uglify-js@2.8.22 </tspan>
<tspan x="10" y="5226">  │ ├── source-map@0.5.6 </tspan>
<tspan x="10" y="5242">  │ ├── uglify-to-browserify@1.0.2 </tspan>
<tspan x="10" y="5258">  │ └─┬ yargs@3.10.0 </tspan>
<tspan x="10" y="5274">  │   ├── camelcase@1.2.1 </tspan>
<tspan x="10" y="5290">  │   ├─┬ cliui@2.1.0 </tspan>
<tspan x="10" y="5306">  │   │ ├─┬ center-align@0.1.3 </tspan>
<tspan x="10" y="5322">  │   │ │ ├─┬ align-text@0.1.4 </tspan>
<tspan x="10" y="5338">  │   │ │ │ ├── longest@1.0.1 </tspan>
<tspan x="10" y="5354">  │   │ │ │ └── repeat-string@1.6.1 </tspan>
<tspan x="10" y="5370">  │   │ │ └── lazy-cache@1.0.4 </tspan>
<tspan x="10" y="5386">  │   │ ├── right-align@0.1.3 </tspan>
<tspan x="10" y="5402">  │   │ └── wordwrap@0.0.2 </tspan>
<tspan x="10" y="5418">  │   └── window-size@0.1.0 </tspan>
<tspan x="10" y="5434">  ├─┬ underscore.string@3.3.4 </tspan>
<tspan x="10" y="5450">  │ └── util-deprecate@1.0.2 </tspan>
<tspan x="10" y="5466">  ├─┬ uploadfs@1.3.6 </tspan>
<tspan x="10" y="5482">  │ ├─┬ gm@1.23.0 </tspan>
<tspan x="10" y="5498">  │ │ ├── array-parallel@0.1.3 </tspan>
<tspan x="10" y="5514">  │ │ ├── array-series@0.1.5 </tspan>
<tspan x="10" y="5530">  │ │ ├─┬ cross-spawn@4.0.2 </tspan>
<tspan x="10" y="5546">  │ │ │ ├─┬ lru-cache@4.0.2 </tspan>
<tspan x="10" y="5562">  │ │ │ │ ├── pseudomap@1.0.2 </tspan>
<tspan x="10" y="5578">  │ │ │ │ └── yallist@2.1.2 </tspan>
<tspan x="10" y="5594">  │ │ │ └─┬ which@1.2.14 </tspan>
<tspan x="10" y="5610">  │ │ │   └── isexe@2.0.0 </tspan>
<tspan x="10" y="5626">  │ │ └─┬ debug@2.2.0 </tspan>
<tspan x="10" y="5642">  │ │   └── ms@0.7.1 </tspan>
<tspan x="10" y="5658">  │ ├─┬ jimp@0.2.27 </tspan>
<tspan x="10" y="5674">  │ │ ├── bignumber.js@2.4.0 </tspan>
<tspan x="10" y="5690">  │ │ ├── bmp-js@0.0.1 </tspan>
<tspan x="10" y="5706">  │ │ ├── exif-parser@0.1.9 </tspan>
<tspan x="10" y="5722">  │ │ ├── file-type@3.9.0 </tspan>
<tspan x="10" y="5738">  │ │ ├── jpeg-js@0.2.0 </tspan>
<tspan x="10" y="5754">  │ │ ├─┬ load-bmfont@1.3.0 </tspan>
<tspan x="10" y="5770">  │ │ │ ├── buffer-equal@0.0.1 </tspan>
<tspan x="10" y="5786">  │ │ │ ├── parse-bmfont-ascii@1.0.6 </tspan>
<tspan x="10" y="5802">  │ │ │ ├── parse-bmfont-binary@1.0.6 </tspan>
<tspan x="10" y="5818">  │ │ │ ├─┬ parse-bmfont-xml@1.1.3 </tspan>
<tspan x="10" y="5834">  │ │ │ │ └── xml-parse-from-string@1.0.0 </tspan>
<tspan x="10" y="5850">  │ │ │ └─┬ xhr@2.4.0 </tspan>
<tspan x="10" y="5866">  │ │ │   ├─┬ global@4.3.2 </tspan>
<tspan x="10" y="5882">  │ │ │   │ ├─┬ min-document@2.19.0 </tspan>
<tspan x="10" y="5898">  │ │ │   │ │ └── dom-walk@0.1.1 </tspan>
<tspan x="10" y="5914">  │ │ │   │ └── process@0.5.2 </tspan>
<tspan x="10" y="5930">  │ │ │   ├── is-function@1.0.1 </tspan>
<tspan x="10" y="5946">  │ │ │   └─┬ parse-headers@2.0.1 </tspan>
<tspan x="10" y="5962">  │ │ │     ├── for-each@0.3.2 </tspan>
<tspan x="10" y="5978">  │ │ │     └── trim@0.0.1 </tspan>
<tspan x="10" y="5994">  │ │ ├── pixelmatch@4.0.2 </tspan>
<tspan x="10" y="6010">  │ │ ├── pngjs@3.0.1 </tspan>
<tspan x="10" y="6026">  │ │ ├── read-chunk@1.0.1 </tspan>
<tspan x="10" y="6042">  │ │ ├─┬ stream-to-buffer@0.1.0 </tspan>
<tspan x="10" y="6058">  │ │ │ └── stream-to@0.2.2 </tspan>
<tspan x="10" y="6074">  │ │ ├── tinycolor2@1.4.1 </tspan>
<tspan x="10" y="6090">  │ │ └─┬ url-regex@3.2.0 </tspan>
<tspan x="10" y="6106">  │ │   └── ip-regex@1.0.3 </tspan>
<tspan x="10" y="6122">  │ ├─┬ knox@0.9.2 </tspan>
<tspan x="10" y="6138">  │ │ ├─┬ debug@1.0.4 </tspan>
<tspan x="10" y="6154">  │ │ │ └── ms@0.6.2 </tspan>
<tspan x="10" y="6170">  │ │ └── stream-counter@1.0.0 </tspan>
<tspan x="10" y="6186">  │ └── mkdirp@0.3.5 </tspan>
<tspan x="10" y="6202">  ├── xregexp@2.0.0 </tspan>
<tspan x="10" y="6218">  └─┬ yargs@3.32.0 </tspan>
<tspan x="10" y="6234">    ├── camelcase@2.1.1 </tspan>
<tspan x="10" y="6250">    ├─┬ cliui@3.2.0 </tspan>
<tspan x="10" y="6266">    │ ├─┬ strip-ansi@3.0.1 </tspan>
<tspan x="10" y="6282">    │ │ └── ansi-regex@2.1.1 </tspan>
<tspan x="10" y="6298">    │ └── wrap-ansi@2.1.0 </tspan>
<tspan x="10" y="6314">    ├── decamelize@1.2.0 </tspan>
<tspan x="10" y="6330">    ├─┬ os-locale@1.4.0 </tspan>
<tspan x="10" y="6346">    │ └─┬ lcid@1.0.0 </tspan>
<tspan x="10" y="6362">    │   └── invert-kv@1.0.0 </tspan>
<tspan x="10" y="6378">    ├─┬ string-width@1.0.2 </tspan>
<tspan x="10" y="6394">    │ ├── code-point-at@1.1.0 </tspan>
<tspan x="10" y="6410">    │ └─┬ is-fullwidth-code-point@1.0.0 </tspan>
<tspan x="10" y="6426">    │   └── number-is-nan@1.0.1 </tspan>
<tspan x="10" y="6442">    ├── window-size@0.1.4 </tspan>
<tspan x="10" y="6458">    └── y18n@3.2.1</tspan>
</text>
</svg>
